# xmcd
#
# Track frame offsets: 
#        150
#        12890
#        24291
#        34950
#        48069
#        62685
#        73794
#        85202
#        97583
#        112649
#        123959
#        138318
#        153506
#        168626
#        181378
#        195879
#        203811
#        215717
#        229967
#        243419
#        255123
#        269388
#        283105
#        294069
#        308189
#
# Disc length: 4324 seconds
#
# Revision: 1
# Processed by: cddbd v1.5.2PL0 Copyright (c) Steve Scherf et al.
# Submitted via: ExactAudioCopy v0.99pb5
#
DISCID=4d10e219
DTITLE=Various Artist - The Melody Lingers On - 3
DYEAR=1900
DGENRE=Oldies
TTITLE0=Over The Rainbow - Judy Garland
TTITLE1=Swinging OnA Star - Bing Crosby
TTITLE2=Baby, It's Cold Outside - Dinah Shore and Buddy Clark
TTITLE3=That Ole Devil Called Love - Billie Holiday
TTITLE4=When You Were Sweet Sixteen - Perry Como
TTITLE5=If I Loved You - Dinah Washington
TTITLE6=Five Minutes More - Frank Sinatra
TTITLE7=Whispering Grass - The Ink Spots
TTITLE8=Cheek To Cheek - Fred Astaire
TTITLE9=Gone Fishin' - Bing Crosby and Louis Armstrong
TTITLE10=La Vie En Rose - Edith Piaf
TTITLE11=La Mer - Charles Trenet
TTITLE12=Louise -Maurice Chevalier
TTITLE13=Hear My Song, Violetta - Josef Locke
TTITLE14=A String Of Pearls - Glen Miller and His Orchestra 
TTITLE15=Tiger Rag - The Mills Brothers
TTITLE16=Honeysuckle Rose - Fats Waller
TTITLE17=Rose Marie - Nelson Eddy
TTITLE18=Riders In The Sky - Vaughn Monroe and His Orchestra
TTITLE19=Mule Train -Frankie Laine
TTITLE20=My Heart Belongs To Daddy - Ella Fitzgerald
TTITLE21=(Get Your Kicks On) Route 66 - Nat King Cole Trio
TTITLE22=Them Their Eyes - Billie Holiday
TTITLE23=Dont Fence Me In - Bing Crosby and The Andrews Sisters
TTITLE24=In The Mood - Glen Miller and His Orchestra
EXTD=The Melody Lingers On - Disc 3
EXTT0=
EXTT1=
EXTT2=
EXTT3=
EXTT4=
EXTT5=
EXTT6=
EXTT7=
EXTT8=
EXTT9=
EXTT10=
EXTT11=
EXTT12=
EXTT13=
EXTT14=
EXTT15=
EXTT16=
EXTT17=
EXTT18=
EXTT19=
EXTT20=
EXTT21=
EXTT22=
EXTT23=
EXTT24=
PLAYORDER=
